<svg xmlns="http://www.w3.org/2000/svg" viewBox="0 0 1200 800" role="img" aria-labelledby="title desc">
  <title id="title">3D architectural walkthrough</title>
  <desc id="desc">Abstract interior walkthrough scene with walls, floor grid, and navigation path.</desc>
  <rect width="1200" height="800" fill="#f7f3e8"/>
  <rect x="86" y="82" width="1028" height="636" fill="#111111"/>
  <polygon points="170,645 1030,645 808,280 392,280" fill="#d8d2c4"/>
  <polygon points="392,280 808,280 940,150 260,150" fill="#1f5fbf"/>
  <polygon points="170,645 392,280 260,150 130,520" fill="#f4c430"/>
  <polygon points="1030,645 808,280 940,150 1080,520" fill="#e23d28"/>
  <path d="M600 640 C545 525 545 425 600 310 C655 425 655 525 600 640Z" fill="none" stroke="#111111" stroke-width="14"/>
  <circle cx="600" cy="310" r="22" fill="#111111"/>
  <g stroke="#111111" stroke-width="6" opacity="0.65">
    <path d="M260 645 468 280"/>
    <path d="M420 645 535 280"/>
    <path d="M780 645 665 280"/>
    <path d="M940 645 732 280"/>
    <path d="M250 520 950 520"/>
    <path d="M330 415 870 415"/>
  </g>
</svg>
