<svg xmlns="http://www.w3.org/2000/svg" viewBox="0 0 1200 800" role="img" aria-labelledby="title desc">
  <title id="title">Nature of Code/ Branch Notebook</title>
  <desc id="desc">Abstract branching generative notebook with code lines and growth structure.</desc>
  <rect width="1200" height="800" fill="#f7f3e8"/>
  <rect x="78" y="72" width="1044" height="656" fill="#111111"/>
  <rect x="145" y="130" width="330" height="540" fill="#f7f3e8"/>
  <g stroke="#111111" stroke-width="10" stroke-linecap="round">
    <path d="M195 210 H420"/>
    <path d="M195 275 H385"/>
    <path d="M195 340 H430"/>
    <path d="M195 405 H365"/>
    <path d="M195 470 H420"/>
    <path d="M195 535 H345"/>
  </g>
  <g stroke="#f4c430" stroke-width="18" stroke-linecap="round" fill="none">
    <path d="M730 640 V390"/>
    <path d="M730 455 C660 410 610 350 585 270"/>
    <path d="M730 470 C810 420 858 352 884 260"/>
    <path d="M650 385 C610 370 570 330 545 285"/>
    <path d="M812 388 C858 366 900 320 928 268"/>
    <path d="M730 545 C665 525 620 492 585 440"/>
    <path d="M730 550 C790 528 846 490 884 430"/>
  </g>
  <circle cx="730" cy="640" r="34" fill="#e23d28"/>
  <circle cx="585" cy="270" r="22" fill="#1f5fbf"/>
  <circle cx="884" cy="260" r="22" fill="#1f5fbf"/>
</svg>
