<svg xmlns="http://www.w3.org/2000/svg" viewBox="0 0 1200 800" role="img" aria-labelledby="title desc">
  <title id="title">XR Tone Synthesizer and Beat Sequencer</title>
  <desc id="desc">Abstract XR sound interface with waveform, sequencer pads, and spatial rings.</desc>
  <rect width="1200" height="800" fill="#f7f3e8"/>
  <rect x="78" y="72" width="1044" height="656" fill="#111111"/>
  <circle cx="600" cy="282" r="162" fill="none" stroke="#1f5fbf" stroke-width="28"/>
  <circle cx="600" cy="282" r="88" fill="none" stroke="#f4c430" stroke-width="18"/>
  <path d="M190 356 C245 238 300 474 355 356 S465 238 520 356 S630 474 685 356 S795 238 850 356 S960 474 1015 356" fill="none" stroke="#e23d28" stroke-width="18" stroke-linecap="round"/>
  <g fill="#f7f3e8">
    <rect x="190" y="520" width="96" height="96"/>
    <rect x="316" y="520" width="96" height="96"/>
    <rect x="442" y="520" width="96" height="96"/>
    <rect x="568" y="520" width="96" height="96"/>
    <rect x="694" y="520" width="96" height="96"/>
    <rect x="820" y="520" width="96" height="96"/>
    <rect x="946" y="520" width="96" height="96"/>
  </g>
</svg>
