<svg xmlns="http://www.w3.org/2000/svg" viewBox="0 0 1200 800" role="img" aria-labelledby="title desc">
  <title id="title">Basics of Programming</title>
  <desc id="desc">Abstract creative coding teaching graphic with p5.js grid, loops, and generated forms.</desc>
  <rect width="1200" height="800" fill="#f7f3e8"/>
  <rect x="78" y="72" width="1044" height="656" fill="#111111"/>
  <g fill="#f7f3e8">
    <rect x="160" y="150" width="118" height="118"/>
    <rect x="312" y="150" width="118" height="118"/>
    <rect x="464" y="150" width="118" height="118"/>
    <rect x="160" y="302" width="118" height="118"/>
    <rect x="312" y="302" width="118" height="118"/>
    <rect x="464" y="302" width="118" height="118"/>
    <rect x="160" y="454" width="118" height="118"/>
    <rect x="312" y="454" width="118" height="118"/>
    <rect x="464" y="454" width="118" height="118"/>
  </g>
  <circle cx="219" cy="209" r="42" fill="#e23d28"/>
  <circle cx="371" cy="361" r="42" fill="#1f5fbf"/>
  <circle cx="523" cy="513" r="42" fill="#f4c430"/>
  <path d="M700 235 H1010 M700 335 H930 M700 435 H1010 M700 535 H880" stroke="#f4c430" stroke-width="18" stroke-linecap="round"/>
</svg>
