<svg xmlns="http://www.w3.org/2000/svg" viewBox="0 0 1200 800" role="img" aria-labelledby="title desc">
  <title id="title">Powai: Year 1</title>
  <desc id="desc">Abstract map-like composition with lake, blocks, and year marker.</desc>
  <rect width="1200" height="800" fill="#f7f3e8"/>
  <rect x="76" y="72" width="1048" height="656" fill="#111111"/>
  <path d="M214 505 C282 358 386 316 498 384 C610 452 680 270 816 296 C932 318 994 420 968 540 C925 640 775 662 642 610 C500 555 374 650 270 608 C214 585 190 552 214 505Z" fill="#1f5fbf"/>
  <g fill="#f4c430">
    <rect x="205" y="190" width="130" height="92"/>
    <rect x="370" y="160" width="172" height="124"/>
    <rect x="780" y="160" width="190" height="110"/>
    <rect x="820" y="566" width="150" height="86"/>
    <rect x="324" y="582" width="160" height="70"/>
  </g>
  <path d="M170 350 H1030 M620 130 V672 M150 610 L1050 210" stroke="#f7f3e8" stroke-width="14" stroke-linecap="round" opacity="0.9"/>
  <g fill="#111111" font-family="Arial, Helvetica, sans-serif" font-weight="700">
    <text x="238" y="250" font-size="42">POWAI</text>
    <text x="846" y="630" font-size="42">YEAR 1</text>
  </g>
</svg>
